<?xml version="1.0" encoding="UTF-8"?>
<svg width="24px" height="24px" id="Layer_1" data-name="Layer 1" xmlns="http://www.w3.org/2000/svg" viewBox="0 0 24 24">
  <defs>
    <style>
      .cls-1 {
        fill: none;
      }
    </style>
  </defs>
  <g id="path32">
    <path d="M14.047,23.999H0v-4.054l2.486-1.298c-.366-.513-1.292-1.975-1.292-3.564,0-3.04,1.821-5.331,4.235-5.331,2.296,0,4.235,2.442,4.235,5.331,0,1.628-.97,3.121-1.343,3.635l4.586,2.356c.267,.2,1.137,.934,1.137,1.976v.95h.002Zm-12.346-1.701H11.597l-4.262-2.176c-.433-.217-.741-.631-.818-1.104-.075-.462,.072-.918,.403-1.249h0c-.007,0,1.047-1.35,1.047-2.687,0-1.9-1.208-3.63-2.535-3.63-1.445,0-2.535,1.561-2.535,3.63,0,1.362,1.094,2.737,1.105,2.751,.298,.441,.381,.89,.274,1.293-.103,.389-.371,.708-.754,.899l-1.82,.95v1.322h0Zm6.48-3.393h0Zm-.081-.301h0Zm-5.354-.093h0Z"/>
  </g>
  <path d="M10.146,12.886l1.531-1.911c.023-.031,.409-.557,.38-1.185-1.295-.993-2.056-2.45-2.056-3.966C10.001,2.672,13.029,.113,16.896,0h0c3.844,0,6.927,2.458,7.043,5.593,0,3.185-3.029,5.743-6.895,5.856-.805,.011-1.506-.07-2.152-.207-.832,.693-2.079,1.017-2.359,1.081l-2.389,.563h0ZM16.921,1.693c-2.921,.086-5.227,1.901-5.227,4.131,0,1.068,.603,2.107,1.615,2.78l.272,.181,.079,.318c.078,.31,.102,.608,.09,.888,.086-.064,.155-.129,.205-.195l.35-.466,.56,.16c.617,.176,1.343,.266,2.157,.266,2.921-.086,5.227-1.901,5.227-4.131-.082-2.192-2.423-3.932-5.327-3.932h0Z"/>
  <rect class="cls-1" x="14.232" y="3.036" width="5.675" height="8.364"/>
  <path d="M17.245,7.377h-1.02c-.003-.145-.004-.235-.004-.268,0-.332,.055-.602,.164-.817,.109-.213,.328-.453,.656-.721,.328-.267,.524-.441,.589-.524,.099-.13,.147-.274,.147-.432,0-.219-.088-.406-.263-.563-.174-.155-.41-.233-.706-.233-.286,0-.524,.081-.717,.244-.191,.162-.324,.41-.395,.744l-1.033-.127c.029-.478,.232-.884,.61-1.218,.377-.333,.872-.5,1.486-.5,.645,0,1.16,.169,1.542,.507s.572,.73,.572,1.179c0,.248-.07,.482-.21,.704s-.439,.523-.898,.904c-.237,.197-.384,.356-.441,.477-.058,.119-.084,.335-.079,.643h0Zm-1.02,1.515v-1.124h1.124v1.124h-1.124Z"/>
</svg>
